# Blender 4.1.1
# www.blender.org
mtllib Player.mtl
o ayam
v -0.275000 -0.110000 -0.733190
v -0.165000 -0.110000 -0.635431
v -0.275000 -0.110000 -0.537672
v -0.055000 -0.110000 -0.537672
v -0.165000 -0.110000 -0.733190
v -0.055000 -0.110000 -0.635431
v -0.715000 -0.110000 -0.342155
v -0.605000 -0.110000 -0.146638
v -0.715000 -0.110000 -0.146638
v -0.495000 -0.110000 -0.342155
v -0.495000 -0.110000 -0.048879
v -0.605000 -0.110000 -0.048879
v 0.605000 -0.110000 0.048879
v 0.715000 -0.110000 0.244397
v 0.605000 -0.110000 0.244397
v 0.715000 -0.110000 0.048879
v -0.385000 -0.220000 0.635431
v -0.165000 -0.220000 0.733190
v -0.385000 -0.220000 0.733190
v -0.165000 -0.220000 0.635431
v -0.385000 0.110000 0.635431
v 0.165000 0.110000 0.733190
v -0.385000 0.110000 0.733190
v 0.165000 0.110000 0.635431
v -0.055000 -0.330000 0.342155
v 0.055000 -0.330000 0.635431
v -0.055000 -0.330000 0.635431
v 0.055000 -0.330000 0.342155
v -0.055000 0.220000 0.342155
v 0.055000 0.220000 0.635431
v -0.055000 0.220000 0.635431
v 0.055000 0.220000 0.342155
v -0.495000 -0.440000 -0.537672
v -0.275000 -0.440000 0.048879
v -0.495000 -0.440000 0.342155
v -0.275000 -0.440000 0.244397
v 0.165000 -0.440000 -0.537672
v 0.165000 -0.440000 0.244397
v 0.165000 -0.440000 -0.048879
v 0.605000 -0.440000 0.342155
v 0.165000 -0.440000 0.048879
v 0.605000 -0.440000 -0.048879
v -0.385000 -0.440000 0.635431
v 0.165000 -0.440000 0.733190
v -0.385000 -0.440000 0.733190
v 0.165000 -0.440000 0.635431
v -0.385000 0.330000 0.635431
v -0.165000 0.330000 0.733190
v -0.385000 0.330000 0.733190
v -0.165000 0.330000 0.635431
v -0.275000 -0.550000 0.048879
v 0.165000 -0.550000 0.244397
v -0.275000 -0.550000 0.244397
v 0.165000 -0.550000 0.048879
v -0.275000 0.110000 -0.733190
v -0.165000 0.110000 -0.635431
v -0.275000 0.110000 -0.537672
v -0.055000 0.110000 -0.537672
v -0.165000 0.110000 -0.733190
v -0.055000 0.110000 -0.635431
v -0.715000 0.110000 -0.342155
v -0.605000 0.110000 -0.146638
v -0.715000 0.110000 -0.146638
v -0.495000 0.110000 -0.342155
v -0.495000 0.110000 -0.048879
v -0.605000 0.110000 -0.048879
v 0.605000 0.110000 0.048879
v 0.715000 0.110000 0.244397
v 0.605000 0.110000 0.244397
v 0.715000 0.110000 0.048879
v -0.385000 -0.110000 0.635431
v 0.165000 -0.110000 0.733190
v -0.385000 -0.110000 0.733190
v 0.165000 -0.110000 0.635431
v -0.385000 0.220000 0.635431
v -0.165000 0.220000 0.733190
v -0.385000 0.220000 0.733190
v -0.165000 0.220000 0.635431
v -0.055000 -0.220000 0.342155
v 0.055000 -0.220000 0.635431
v -0.055000 -0.220000 0.635431
v 0.055000 -0.220000 0.342155
v -0.055000 0.330000 0.342155
v 0.055000 0.330000 0.635431
v -0.055000 0.330000 0.635431
v 0.055000 0.330000 0.342155
v -0.495000 0.440000 -0.537672
v -0.275000 0.440000 0.048879
v -0.495000 0.440000 0.342155
v -0.275000 0.440000 0.244397
v 0.165000 0.440000 -0.537672
v 0.165000 0.440000 0.244397
v 0.165000 0.440000 -0.048879
v 0.605000 0.440000 0.342155
v 0.165000 0.440000 0.048879
v 0.605000 0.440000 -0.048879
v -0.385000 0.440000 0.635431
v 0.165000 0.440000 0.733190
v -0.385000 0.440000 0.733190
v 0.165000 0.440000 0.635431
v -0.385000 -0.330000 0.635431
v -0.165000 -0.330000 0.733190
v -0.385000 -0.330000 0.733190
v -0.165000 -0.330000 0.635431
v -0.275000 0.550000 0.048879
v 0.165000 0.550000 0.244397
v -0.275000 0.550000 0.244397
v 0.165000 0.550000 0.048879
vn -0.5533 -0.5533 -0.6226
vn 0.2979 -0.8938 -0.3352
vn -0.2732 -0.2732 -0.9223
vn 0.2732 -0.2732 -0.9223
vn 0.5533 -0.5533 -0.6226
vn -0.5534 -0.5533 -0.6226
vn -0.2979 -0.8938 0.3352
vn -0.5533 -0.5533 0.6226
vn -0.8938 -0.2979 -0.3353
vn -0.8938 -0.2979 0.3352
vn 0.8938 -0.2979 -0.3352
vn 0.5533 -0.5533 0.6226
vn 0.8938 -0.2979 0.3352
vn 0.5534 -0.5533 -0.6226
vn -0.2732 -0.2732 0.9223
vn -0.5533 -0.5534 0.6226
vn 0.5533 -0.5534 -0.6226
vn 0.2732 -0.2732 0.9223
vn -0.2979 -0.8938 -0.3352
vn -0.5534 -0.5533 0.6226
vn 0.2979 -0.8938 0.3352
vn 0.2979 0.8938 -0.3352
vn -0.5533 0.5534 -0.6226
vn -0.2732 0.2732 -0.9223
vn 0.2732 0.2732 -0.9223
vn 0.5533 0.5533 -0.6226
vn -0.2979 0.8938 0.3352
vn -0.5533 0.5533 -0.6226
vn -0.5534 0.5533 0.6226
vn -0.8938 0.2979 -0.3352
vn -0.8938 0.2979 0.3352
vn -0.5533 0.5533 0.6226
vn 0.5534 0.5533 0.6226
vn 0.8938 0.2979 -0.3352
vn 0.8938 0.2979 0.3352
vn 0.5533 0.5533 0.6226
vn -0.2732 0.2732 0.9223
vn 0.2732 0.2732 0.9223
vn -0.2979 0.8938 -0.3352
vn 0.2979 0.8938 0.3352
vt 0.666759 0.583380
vt 0.722222 0.666574
vt 0.777685 0.583380
vt 0.666790 0.625000
vt 0.777716 0.666597
vt 0.777716 0.583403
vt 0.666745 0.583451
vt 0.666745 0.666608
vt 0.777621 0.666608
vt 0.666824 0.583392
vt 0.777699 0.666549
vt 0.777699 0.583392
vt 0.666728 0.583403
vt 0.666728 0.666597
vt 0.777655 0.625000
vt 0.740719 0.583433
vt 0.666778 0.666617
vt 0.777689 0.666617
vt 0.111268 0.750059
vt 0.222144 0.833216
vt 0.222144 0.750059
vt 0.111190 0.750118
vt 0.111190 0.833274
vt 0.222065 0.833274
vt 0.444602 0.833392
vt 0.555477 0.916549
vt 0.555477 0.833392
vt 0.444523 0.833451
vt 0.444523 0.916608
vt 0.555398 0.916608
vt 0.777935 0.833392
vt 0.888810 0.916549
vt 0.888810 0.833392
vt 0.777856 0.833451
vt 0.777856 0.916608
vt 0.888732 0.916608
vt 0.111222 0.500050
vt 0.185163 0.583233
vt 0.222133 0.500050
vt 0.111287 0.583254
vt 0.185150 0.583254
vt 0.222082 0.500158
vt 0.777644 0.250017
vt 0.111178 0.083400
vt 0.111178 0.583250
vt 0.222011 0.500105
vt 0.111217 0.527804
vt 0.111217 0.583202
vt 0.222114 0.500139
vt 0.111281 0.583264
vt 0.203642 0.583264
vt 0.222158 0.583266
vt 0.222158 0.500077
vt 0.111240 0.549990
vt 0.111268 0.583274
vt 0.222144 0.583274
vt 0.222144 0.500118
vt 0.185150 0.500079
vt 0.111287 0.500079
vt 0.222082 0.583175
vt 0.222065 0.500059
vt 0.111190 0.500059
vt 0.111190 0.583216
vt 0.222101 0.583281
vt 0.138924 0.500104
vt 0.111198 0.583281
vt 0.444509 0.916589
vt 0.444509 0.833401
vt 0.555426 0.866676
vt 0.444533 0.916617
vt 0.481504 0.833433
vt 0.555444 0.916617
vt 0.444611 0.833417
vt 0.500000 0.833417
vt 0.555389 0.916500
vt 0.444574 0.866676
vt 0.555491 0.833401
vt 0.555491 0.916589
vt 0.444523 0.833392
vt 0.555398 0.833392
vt 0.444523 0.916549
vt 0.111198 0.500052
vt 0.222101 0.500052
vt 0.138924 0.583229
vt 0.166667 0.583250
vt 0.111278 0.500167
vt 0.222056 0.583250
vt 0.111302 0.500129
vt 0.222127 0.566624
vt 0.222127 0.583248
vt 0.111278 0.583250
vt 0.222056 0.500167
vt 0.222144 0.583216
vt 0.111268 0.500059
vt 0.222144 0.500059
vt 0.111173 0.500069
vt 0.222099 0.541667
vt 0.111173 0.583264
vt 0.222032 0.500129
vt 0.111206 0.583248
vt 0.111206 0.566624
vt 0.111190 0.583274
vt 0.111190 0.500118
vt 0.222065 0.583274
vt 0.166667 0.500083
vt 0.222056 0.500083
vt 0.111278 0.583167
vt 0.222161 0.583264
vt 0.111234 0.541667
vt 0.222161 0.500069
vt 0.111278 0.500083
vt 0.222056 0.583167
vt 0.444655 0.916535
vt 0.555450 0.861137
vt 0.555450 0.833439
vt 0.444667 0.916542
vt 0.555444 0.875000
vt 0.555444 0.833458
vt 0.444550 0.833439
vt 0.444550 0.861137
vt 0.555345 0.916535
vt 0.444556 0.833458
vt 0.444556 0.875000
vt 0.555333 0.916542
vt 0.111201 0.500049
vt 0.152794 0.583235
vt 0.222116 0.500049
vt 0.111264 0.583252
vt 0.155577 0.583252
vt 0.222048 0.500163
vt 0.111178 0.500067
vt 0.222089 0.527794
vt 0.111244 0.527794
vt 0.222156 0.583250
vt 0.222156 0.500067
vt 0.111333 0.583208
vt 0.222111 0.541667
vt 0.222111 0.500125
vt 0.111222 0.500125
vt 0.111222 0.541667
vt 0.222000 0.583208
vt 0.152794 0.500098
vt 0.111201 0.583284
vt 0.222116 0.583284
vt 0.155577 0.500082
vt 0.111264 0.500082
vt 0.222048 0.583170
vt 0.111174 0.500069
vt 0.111174 0.583260
vt 0.222096 0.537042
vt 0.111238 0.537042
vt 0.222159 0.583260
vt 0.222159 0.500069
vt 0.111329 0.583219
vt 0.222113 0.549984
vt 0.222113 0.500131
vt 0.111220 0.500131
vt 0.111220 0.549984
vt 0.222004 0.583219
vt 0.111181 0.583242
vt 0.111181 0.500065
vt 0.222083 0.520859
vt 0.222153 0.583242
vt 0.111250 0.520859
vt 0.222153 0.500065
vt 0.222117 0.555529
vt 0.111322 0.583228
vt 0.222117 0.500132
vt 0.111217 0.555529
vt 0.111217 0.500132
vt 0.222011 0.583228
s 1
usemtl lambert0
f 1/1/1 2/2/2 3/3/3
f 2/4/2 4/5/4 3/6/3
f 1/7/1 5/8/5 2/9/2
f 2/7/2 6/8/5 4/9/4
f 7/10/6 8/11/7 9/12/8
f 7/13/6 10/14/9 8/15/7
f 8/16/7 10/17/9 11/18/10
f 8/10/7 11/11/10 12/12/8
f 13/19/11 14/20/12 15/21/13
f 13/22/11 16/23/14 14/24/12
f 17/25/6 18/26/15 19/27/8
f 17/28/6 20/29/3 18/30/15
f 21/25/6 22/26/12 23/27/16
f 21/28/6 24/29/17 22/30/12
f 25/31/15 26/32/4 27/33/3
f 25/34/15 28/35/18 26/36/4
f 29/31/15 30/32/4 31/33/3
f 29/34/15 32/35/18 30/36/4
f 33/37/1 34/38/19 35/39/20
f 34/40/19 36/41/7 35/42/20
f 34/43/19 33/44/1 37/45/5
f 35/46/20 36/47/7 38/48/21
f 34/49/19 37/50/5 39/51/2
f 40/52/12 35/53/20 38/54/21
f 39/55/2 41/56/2 34/57/19
f 38/58/21 41/59/2 40/60/12
f 41/61/2 39/62/2 42/63/5
f 40/64/12 41/65/2 42/66/5
f 43/25/6 44/26/12 45/27/8
f 43/28/6 46/29/17 44/30/12
f 47/25/6 48/26/15 49/27/8
f 47/28/6 50/29/3 48/30/15
f 51/19/1 52/20/12 53/21/8
f 51/22/1 54/23/5 52/24/12
f 56/2/22 55/1/23 57/3/24
f 58/5/25 56/4/22 57/6/24
f 59/8/26 55/7/23 56/9/22
f 60/8/26 56/7/22 58/9/25
f 62/11/27 61/10/28 63/12/29
f 64/14/30 61/13/28 62/15/27
f 64/17/30 62/16/27 65/18/31
f 65/11/31 62/10/27 66/12/32
f 68/20/33 67/19/34 69/21/35
f 70/23/26 67/22/34 68/24/33
f 72/26/36 71/25/28 73/27/29
f 74/29/26 71/28/28 72/30/36
f 76/26/37 75/25/23 77/27/29
f 78/29/24 75/28/23 76/30/37
f 80/32/25 79/31/37 81/33/24
f 82/35/38 79/34/37 80/36/25
f 84/32/25 83/31/37 85/33/24
f 86/35/38 83/34/37 84/36/25
f 88/38/39 87/37/28 89/39/29
f 90/41/27 88/40/39 89/42/29
f 87/44/28 88/43/39 91/45/26
f 90/47/27 89/46/29 92/48/40
f 91/50/26 88/49/39 93/51/22
f 89/53/29 94/52/36 92/54/40
f 95/56/22 93/55/22 88/57/39
f 95/59/22 92/58/40 94/60/36
f 93/62/22 95/61/22 96/63/26
f 95/65/22 94/64/36 96/66/26
f 98/26/36 97/25/28 99/27/29
f 100/29/26 97/28/28 98/30/36
f 102/26/37 101/25/23 103/27/29
f 104/29/24 101/28/23 102/30/37
f 106/20/36 105/19/28 107/21/32
f 108/23/26 105/22/28 106/24/36
f 48/26/15 99/25/29 49/27/8
f 98/67/36 99/68/29 48/69/15
f 98/70/36 48/71/15 22/72/12
f 48/73/15 76/74/37 22/75/12
f 76/76/37 23/77/16 22/78/12
f 77/79/29 23/80/16 76/81/37
f 18/26/15 73/25/29 19/27/8
f 72/67/36 73/68/29 18/69/15
f 72/70/36 18/71/15 44/72/12
f 18/73/15 102/74/37 44/75/12
f 102/76/37 45/77/8 44/78/12
f 103/79/29 45/80/8 102/81/37
f 89/82/29 35/83/20 29/84/15
f 83/85/37 89/86/29 29/87/15
f 79/41/37 29/40/15 35/42/20
f 89/88/29 83/89/37 86/90/38
f 25/85/15 79/91/37 35/92/20
f 82/93/38 29/94/15 79/95/37
f 89/96/29 86/97/38 94/98/36
f 35/99/20 28/100/18 25/101/15
f 32/102/18 29/103/15 82/104/38
f 86/105/38 32/106/18 94/107/36
f 40/108/12 28/109/18 35/110/20
f 32/59/18 82/58/38 40/60/12
f 32/65/18 40/64/12 94/66/36
f 82/111/38 28/105/18 40/112/12
f 92/20/40 107/19/32 90/21/27
f 106/23/36 107/22/32 92/24/40
f 14/20/12 69/19/35 15/21/13
f 68/23/33 69/22/35 14/24/12
f 52/20/12 36/19/7 53/21/8
f 38/23/21 36/22/7 52/24/12
f 11/11/10 66/10/32 12/12/8
f 65/8/31 66/7/32 11/9/10
f 8/11/7 63/10/29 9/12/8
f 62/8/27 63/7/29 8/9/7
f 97/25/28 50/26/3 47/27/6
f 97/68/28 100/67/26 50/69/3
f 100/113/26 85/114/24 50/115/3
f 50/28/3 85/29/24 31/30/3
f 100/116/26 84/117/25 85/118/24
f 50/25/3 31/26/3 78/27/24
f 84/71/25 100/70/26 24/72/17
f 78/119/24 31/120/3 24/121/17
f 30/74/4 84/73/25 24/75/17
f 31/122/3 30/123/4 24/124/17
f 21/77/6 78/76/24 24/78/17
f 21/80/6 75/79/23 78/81/24
f 71/25/28 20/26/3 17/27/6
f 71/68/28 74/67/26 20/69/3
f 74/113/26 81/114/24 20/115/3
f 20/28/3 81/29/24 27/30/3
f 74/116/26 80/117/25 81/118/24
f 20/25/3 27/26/3 104/27/24
f 80/71/25 74/70/26 46/72/17
f 104/119/24 27/120/3 46/121/17
f 26/74/4 80/73/25 46/75/17
f 27/122/3 26/123/4 46/124/17
f 43/77/6 104/76/24 46/78/17
f 43/80/6 101/79/23 104/81/24
f 105/19/28 95/20/22 88/21/39
f 105/22/28 108/23/26 95/24/22
f 67/19/34 16/20/14 13/21/11
f 67/22/34 70/23/26 16/24/14
f 34/19/19 54/20/5 51/21/1
f 34/22/19 41/23/2 54/24/5
f 93/94/22 42/93/5 39/95/2
f 93/103/22 96/102/26 42/104/5
f 61/10/28 10/11/9 7/12/6
f 61/7/28 64/8/30 10/9/9
f 87/125/28 57/126/24 33/127/1
f 57/128/24 3/129/3 33/130/1
f 87/131/28 91/45/26 57/132/24
f 3/133/3 37/134/5 33/135/1
f 91/136/26 58/137/25 57/138/24
f 3/139/3 4/140/4 37/141/5
f 58/142/25 91/143/26 37/144/5
f 4/145/4 58/146/25 37/147/5
f 56/10/22 6/11/5 2/12/2
f 56/7/22 60/8/26 6/9/5
f 55/10/23 5/11/5 1/12/1
f 55/7/23 59/8/26 5/9/5
f 85/31/24 29/32/15 31/33/3
f 85/34/24 83/35/37 29/36/15
f 81/31/24 25/32/15 27/33/3
f 81/34/24 79/35/37 25/36/15
f 48/25/15 78/26/24 76/27/37
f 48/28/15 50/29/3 78/30/24
f 18/25/15 104/26/24 102/27/37
f 18/28/15 20/29/3 104/30/24
f 107/19/32 88/20/39 90/21/27
f 107/22/32 105/23/28 88/24/39
f 57/10/24 1/11/1 3/12/3
f 57/7/24 55/8/23 1/9/1
f 36/19/7 51/20/1 53/21/8
f 36/22/7 34/23/19 51/24/1
f 99/25/29 47/26/6 49/27/8
f 99/28/29 97/29/28 47/30/6
f 77/25/29 21/26/6 23/27/16
f 77/28/29 75/29/23 21/30/6
f 73/25/29 17/26/6 19/27/8
f 73/28/29 71/29/28 17/30/6
f 103/25/29 43/26/6 45/27/8
f 103/28/29 101/29/23 43/30/6
f 89/125/29 65/126/31 35/127/20
f 65/128/31 11/129/10 35/130/20
f 89/148/29 87/149/28 65/150/31
f 11/151/10 33/152/1 35/153/20
f 87/154/28 64/155/30 65/156/31
f 11/157/10 10/158/9 33/159/1
f 64/142/30 87/143/28 33/144/1
f 10/145/9 64/146/30 33/147/1
f 66/10/32 8/11/7 12/12/8
f 66/7/32 62/8/27 8/9/7
f 63/10/29 7/11/6 9/12/8
f 63/7/29 61/8/28 7/9/6
f 95/20/22 106/19/36 92/21/40
f 108/23/26 106/22/36 95/24/22
f 37/93/5 93/94/22 39/95/2
f 91/102/26 93/103/22 37/104/5
f 24/26/17 98/25/36 22/27/12
f 100/29/26 98/28/36 24/30/17
f 46/26/17 72/25/36 44/27/12
f 74/29/26 72/28/36 46/30/17
f 54/20/5 38/19/21 52/21/12
f 41/23/2 38/22/21 54/24/5
f 32/32/18 84/31/25 30/33/4
f 86/35/38 84/34/25 32/36/18
f 28/32/18 80/31/25 26/33/4
f 82/35/38 80/34/25 28/36/18
f 6/11/5 58/10/25 4/12/4
f 60/8/26 58/7/25 6/9/5
f 5/11/5 56/10/22 2/12/2
f 59/8/26 56/7/22 5/9/5
f 69/126/35 94/125/36 40/127/12
f 15/129/13 69/128/35 40/130/12
f 96/160/26 94/161/36 69/162/35
f 42/163/5 15/164/13 40/165/12
f 67/166/34 96/167/26 69/168/35
f 13/169/11 15/170/13 42/171/5
f 96/143/26 67/142/34 42/144/5
f 67/146/34 13/145/11 42/147/5
f 16/20/14 68/19/33 14/21/12
f 70/23/26 68/22/33 16/24/14
