# Block Character Model (Steve-like)
# Vertices (V) and Faces (F) for each part

# Head (Cube 8 vertices)
o Head
v -0.5 1.5  0.5
v  0.5 1.5  0.5
v  0.5 1.5 -0.5
v -0.5 1.5 -0.5
v -0.5 2.5  0.5
v  0.5 2.5  0.5
v  0.5 2.5 -0.5
v -0.5 2.5 -0.5
usemtl HeadMaterial
f 1 2 3 4
f 5 6 7 8
f 1 5 8 4
f 2 6 7 3
f 3 7 8 4
f 1 2 6 5

# Body (Cube)
o Body
v -0.6 0.5  0.3
v  0.6 0.5  0.3
v  0.6 0.5 -0.3
v -0.6 0.5 -0.3
v -0.6 1.5  0.3
v  0.6 1.5  0.3
v  0.6 1.5 -0.3
v -0.6 1.5 -0.3
usemtl BodyMaterial
f 9 10 11 12
f 13 14 15 16
f 9 13 16 12
f 10 14 15 11
f 11 15 16 12
f 9 10 14 13

# Left Arm (Cube)
o LeftArm
v -1.0 0.5  0.3
v -0.6 0.5  0.3
v -0.6 0.5 -0.3
v -1.0 0.5 -0.3
v -1.0 1.5  0.3
v -0.6 1.5  0.3
v -0.6 1.5 -0.3
v -1.0 1.5 -0.3
usemtl ArmMaterial
f 17 18 19 20
f 21 22 23 24
f 17 21 24 20
f 18 22 23 19
f 19 23 24 20
f 17 18 22 21

# Right Arm (Cube)
o RightArm
v  0.6 0.5  0.3
v  1.0 0.5  0.3
v  1.0 0.5 -0.3
v  0.6 0.5 -0.3
v  0.6 1.5  0.3
v  1.0 1.5  0.3
v  1.0 1.5 -0.3
v  0.6 1.5 -0.3
usemtl ArmMaterial
f 25 26 27 28
f 29 30 31 32
f 25 29 32 28
f 26 30 31 27
f 27 31 32 28
f 25 26 30 29

# Left Leg (Cube)
o LeftLeg
v -0.6 -0.5  0.3
v -0.2 -0.5  0.3
v -0.2 -0.5 -0.3
v -0.6 -0.5 -0.3
v -0.6 0.5  0.3
v -0.2 0.5  0.3
v -0.2 0.5 -0.3
v -0.6 0.5 -0.3
usemtl LegMaterial
f 33 34 35 36
f 37 38 39 40
f 33 37 40 36
f 34 38 39 35
f 35 39 40 36
f 33 34 38 37

# Right Leg (Cube)
o RightLeg
v  0.2 -0.5  0.3
v  0.6 -0.5  0.3
v  0.6 -0.5 -0.3
v  0.2 -0.5 -0.3
v  0.2 0.5  0.3
v  0.6 0.5  0.3
v  0.6 0.5 -0.3
v  0.2 0.5 -0.3
usemtl LegMaterial
f 41 42 43 44
f 45 46 47 48
f 41 45 48 44
f 42 46 47 43
f 43 47 48 44
f 41 42 46 45
