# Blender 4.4.1
# www.blender.org
mtllib windStone.mtl
o Circle
v -0.651443 -0.258920 0.000000
v -0.437571 -0.316408 0.316408
v -0.651443 0.000000 0.258920
v -0.437571 0.316408 0.316408
v -0.651443 0.258920 -0.000000
v -0.437571 0.316408 -0.316408
v -0.651443 -0.000000 -0.258920
v -0.437571 -0.316408 -0.316408
v -0.795102 0.000000 0.000000
v 0.980640 0.000004 0.136058
v 0.980640 -0.136058 0.000004
v 0.980640 0.136058 -0.000004
v 0.980640 -0.000004 -0.136058
v 1.077753 0.000000 0.000000
vn 0.7038 -0.5024 -0.5023
vn 0.7038 0.5023 -0.5024
vn 0.7038 0.5024 0.5023
vn 0.7038 -0.5023 0.5024
vn 0.0751 -0.9972 -0.0000
vn -0.7812 -0.4414 0.4414
vn 0.0751 -0.0000 0.9972
vn -0.7812 0.4414 0.4414
vn 0.0751 0.9972 -0.0000
vn -0.7812 0.4414 -0.4414
vn 0.0751 -0.0000 -0.9972
vn -0.7812 -0.4414 -0.4414
vn 0.2404 -0.6864 -0.6863
vn 0.2404 0.6863 -0.6864
vn 0.2404 0.6864 0.6863
vn 0.2404 -0.6863 0.6864
vt 0.027176 0.311638
vt -0.000000 0.250000
vt 0.042292 0.258717
vt 0.042292 0.008717
vt 0.027176 0.061638
vt 0.000000 0.000000
vt 0.042292 0.758717
vt 0.027176 0.811638
vt 0.000000 0.750000
vt 0.027176 0.561638
vt 0.000000 0.500000
vt 0.042292 0.508717
vt 0.632107 0.250000
vt 0.688886 0.392018
vt 0.580568 0.500000
vt 0.775291 0.119435
vt 0.688886 0.182060
vt 0.704252 0.028504
vt 0.775698 -0.000000
vt 0.580568 0.750000
vt 0.632107 0.500000
vt 0.688887 0.642018
vt 0.891683 0.210565
vt 0.917933 0.364121
vt 0.775291 0.301495
vt 0.775698 0.182060
vt 0.580568 1.000000
vt 0.632107 0.750000
vt 0.688886 0.892018
vt 0.688886 0.364121
vt 0.704252 0.210565
vt 0.580568 0.250000
vt 0.632107 -0.000000
vt 0.688887 0.142018
vt 0.891683 0.028504
vt 0.917932 0.182060
s 1
usemtl 材质
f 13/1/1 14/2/1 11/3/1
f 13/4/2 12/5/2 14/6/2
f 12/7/3 10/8/3 14/9/3
f 11/10/4 14/11/4 10/12/4
f 2/13/5 1/14/5 8/15/5 11/3/5
f 1/16/6 2/17/6 3/18/6 9/19/6
f 2/20/7 10/12/7 4/21/7 3/22/7
f 3/23/8 4/24/8 5/25/8 9/26/8
f 4/27/9 12/7/9 6/28/9 5/29/9
f 5/25/10 6/30/10 7/31/10 9/26/10
f 6/32/11 13/4/11 8/33/11 7/34/11
f 7/35/12 8/36/12 1/16/12 9/19/12
f 13/1/13 11/3/13 8/15/13
f 13/4/14 6/32/14 12/5/14
f 12/7/15 4/27/15 10/8/15
f 10/12/16 2/20/16 11/10/16
