# Blender 4.4.1
# www.blender.org
mtllib bullet.mtl
o Circle
v -0.651443 -0.258920 0.000000
v -0.437571 -0.316408 0.316408
v -0.651443 0.000000 0.258920
v -0.437571 0.316408 0.316408
v -0.651443 0.258920 -0.000000
v -0.437571 0.316408 -0.316408
v -0.651443 -0.000000 -0.258920
v -0.437571 -0.316408 -0.316408
v -0.795102 0.000000 0.000000
v 0.980640 0.000004 0.136058
v 0.980640 -0.136058 0.000004
v 0.980640 0.136058 -0.000004
v 0.980640 -0.000004 -0.136058
v 1.077753 0.000000 0.000000
vn 0.7038 -0.5024 -0.5023
vn 0.7038 0.5023 -0.5024
vn 0.7038 0.5024 0.5023
vn 0.7038 -0.5023 0.5024
vn 0.0751 -0.9972 -0.0000
vn -0.7812 -0.4414 0.4414
vn 0.0751 -0.0000 0.9972
vn -0.7812 0.4414 0.4414
vn 0.0751 0.9972 -0.0000
vn -0.7812 0.4414 -0.4414
vn 0.0751 -0.0000 -0.9972
vn -0.7812 -0.4414 -0.4414
vn 0.2404 -0.6864 -0.6863
vn 0.2404 0.6863 -0.6864
vn 0.2404 0.6864 0.6863
vn 0.2404 -0.6863 0.6864
s 1
usemtl Material.001
f 13//1 14//1 11//1
f 13//2 12//2 14//2
f 12//3 10//3 14//3
f 11//4 14//4 10//4
f 2//5 1//5 8//5 11//5
f 1//6 2//6 3//6 9//6
f 2//7 10//7 4//7 3//7
f 3//8 4//8 5//8 9//8
f 4//9 12//9 6//9 5//9
f 5//10 6//10 7//10 9//10
f 6//11 13//11 8//11 7//11
f 7//12 8//12 1//12 9//12
f 13//13 11//13 8//13
f 13//14 6//14 12//14
f 12//15 4//15 10//15
f 10//16 2//16 11//16
